<?xml version="1.0" encoding="UTF-8"?>
<svg version="1.1" xmlns="http://www.w3.org/2000/svg" width="2000" height="2000">
<path d="M0 0 C51.45205479 0 51.45205479 0 61.828125 9.7109375 C62.29734375 10.26007812 62.7665625 10.80921875 63.25 11.375 C63.96929688 12.19097656 63.96929688 12.19097656 64.703125 13.0234375 C69.22015261 19.90782295 68.84814419 28.47784379 67.640625 36.33984375 C65.33051637 44.222309 57.79371104 49.09901751 51 53 C51.59240479 53.70866211 52.18480957 54.41732422 52.79516602 55.14746094 C54.91750564 57.89327161 56.59809015 60.6080831 58.27734375 63.640625 C58.87353516 64.71183594 59.46972656 65.78304688 60.08398438 66.88671875 C60.69564453 67.99660156 61.30730469 69.10648438 61.9375 70.25 C62.54529297 71.34441406 63.15308594 72.43882813 63.77929688 73.56640625 C64.96965834 75.71085464 66.15645256 77.85728775 67.33935547 80.00585938 C68.39624082 81.91142274 69.46675791 83.80953553 70.55517578 85.69726562 C71.01263184 86.49326172 71.47008789 87.28925781 71.94140625 88.109375 C72.34174072 88.79483398 72.7420752 89.48029297 73.15454102 90.18652344 C74 92 74 92 74 95 C68.72 95 63.44 95 58 95 C56.948125 93.164375 55.89625 91.32875 54.8125 89.4375 C54.44141113 88.79127686 54.07032227 88.14505371 53.68798828 87.47924805 C51.3195723 83.34356192 48.99000326 79.18797276 46.6796875 75.01953125 C46.10371826 73.98578369 45.52774902 72.95203613 44.93432617 71.88696289 C43.77771133 69.80990572 42.62674427 67.72969263 41.48168945 65.64624023 C40.94503662 64.68532471 40.40838379 63.72440918 39.85546875 62.734375 C39.37746826 61.87038086 38.89946777 61.00638672 38.40698242 60.11621094 C37.01970097 57.73452153 37.01970097 57.73452153 34 56 C31.77868577 55.6349209 31.77868577 55.6349209 29.33203125 55.5859375 C28.52741455 55.55032715 27.72279785 55.5147168 26.89379883 55.47802734 C25.87697021 55.44402832 24.8601416 55.4100293 23.8125 55.375 C20.574375 55.25125 17.33625 55.1275 14 55 C14 68.2 14 81.4 14 95 C9.38 95 4.76 95 0 95 C0 63.65 0 32.3 0 0 Z M14 8 C14 20.87 14 33.74 14 47 C17.96 47.0825 21.92 47.165 26 47.25 C27.23234375 47.28641602 28.4646875 47.32283203 29.734375 47.36035156 C37.60254681 47.43933904 43.08781803 46.45192527 49.05859375 41.18359375 C49.51363281 40.60738281 49.96867188 40.03117188 50.4375 39.4375 C50.91058594 38.85871094 51.38367188 38.27992188 51.87109375 37.68359375 C54.98888953 33.03387063 54.51828362 27.35559741 54 22 C52.19699614 15.92491058 47.32388566 12.09866783 42 9 C38.74731407 7.96012617 35.76196682 7.88424486 32.359375 7.90234375 C30.91256348 7.90609009 30.91256348 7.90609009 29.43652344 7.90991211 C28.2199707 7.91901611 27.00341797 7.92812012 25.75 7.9375 C21.8725 7.958125 17.995 7.97875 14 8 Z " fill="#000000" transform="translate(859,979)"/>
<path d="M0 0 C4.62 0 9.24 0 14 0 C14 14.52 14 29.04 14 44 C33.47 44 52.94 44 73 44 C73 29.48 73 14.96 73 0 C77.62 0 82.24 0 87 0 C87 31.02 87 62.04 87 94 C82.38 94 77.76 94 73 94 C73 79.81 73 65.62 73 51 C53.53 51 34.06 51 14 51 C14 65.19 14 79.38 14 94 C9.38 94 4.76 94 0 94 C0 62.98 0 31.96 0 0 Z " fill="#000000" transform="translate(682,979)"/>
<path d="M0 0 C13 0 13 0 16.9453125 2.859375 C18.04242727 4.1249196 19.10180984 5.42397366 20.125 6.75 C20.99390869 7.77456299 20.99390869 7.77456299 21.88037109 8.81982422 C23.05665995 10.20698477 24.21923362 11.60590253 25.3671875 13.01660156 C27.68027063 15.82633352 30.14218509 18.46382195 32.625 21.125 C33.50542969 22.08792969 34.38585938 23.05085937 35.29296875 24.04296875 C38.16490659 27.18333159 41.05006534 30.31138814 43.9375 33.4375 C44.43652832 33.97777832 44.93555664 34.51805664 45.44970703 35.07470703 C46.46104672 36.16948306 47.47244008 37.2642095 48.48388672 38.35888672 C49.99094817 39.99020187 51.4975303 41.62195809 53.00390625 43.25390625 C53.49890625 43.79015625 53.99390625 44.32640625 54.50390625 44.87890625 C55.49755851 45.95557906 56.49104934 47.03240087 57.484375 48.109375 C60.0671733 50.90910125 62.65367469 53.70527131 65.24609375 56.49609375 C66.04756836 57.36041016 66.04756836 57.36041016 66.86523438 58.2421875 C67.87703084 59.33316803 68.88996176 60.42309811 69.90429688 61.51171875 C70.36771484 62.011875 70.83113281 62.51203125 71.30859375 63.02734375 C71.90885376 63.67304321 71.90885376 63.67304321 72.52124023 64.33178711 C74.74092341 66.83584773 76.85779023 69.42934827 79 72 C79.33 48.24 79.66 24.48 80 0 C82.31 0 84.62 0 87 0 C87 31.02 87 62.04 87 94 C79 94 79 94 76.93359375 92.75 C76.19302734 91.88375 76.19302734 91.88375 75.4375 91 C74.86257813 90.35289063 74.28765625 89.70578125 73.6953125 89.0390625 C73.13585938 88.36617187 72.57640625 87.69328125 72 87 C70.9385787 85.79071901 69.87604872 84.58241038 68.8125 83.375 C68.23113281 82.70210937 67.64976563 82.02921875 67.05078125 81.3359375 C59.42716708 72.65227793 51.41462862 64.30117528 43.50463867 55.87963867 C38.86322067 50.93335781 34.2645785 45.95076781 29.69140625 40.94140625 C27.76776939 38.83908614 25.83907103 36.74252265 23.90234375 34.65234375 C23.11380005 33.80095825 23.11380005 33.80095825 22.30932617 32.93237305 C21.31427545 31.85880259 20.31842611 30.7859714 19.3215332 29.71411133 C15.45874662 25.5440806 11.74825975 21.28372543 8 17 C7.67 42.41 7.34 67.82 7 94 C4.69 94 2.38 94 0 94 C0 62.98 0 31.96 0 0 Z " fill="#000000" transform="translate(1118,979)"/>
<path d="M0 0 C13.90549588 -2.20075257 13.90549588 -2.20075257 18.70751953 1.21435547 C21.97291842 4.653823 24.32759755 8.70761294 26.69091797 12.79638672 C28.90466196 16.52284201 31.44446122 20.01980449 33.9375 23.5625 C36.99741342 28.01567863 40.01091856 32.49903978 43 37 C46.21553843 33.93828004 48.8844892 30.66332728 51.5625 27.125 C52.44206624 25.96956301 53.32229932 24.81463341 54.203125 23.66015625 C54.65880859 23.06219238 55.11449219 22.46422852 55.58398438 21.84814453 C57.96975194 18.73430651 60.38933889 15.64727649 62.8125 12.5625 C63.25601807 11.99611816 63.69953613 11.42973633 64.15649414 10.84619141 C65.01106838 9.75884315 65.87079673 8.67552227 66.73608398 7.59667969 C67.60065183 6.50448851 68.44314394 5.39455513 69.26586914 4.27050781 C72.39745998 0.14368999 72.39745998 0.14368999 75.45703125 -0.5859375 C76.23433594 -0.51632812 77.01164063 -0.44671875 77.8125 -0.375 C78.60269531 -0.32085938 79.39289063 -0.26671875 80.20703125 -0.2109375 C80.79871094 -0.14132812 81.39039063 -0.07171875 82 0 C80.35728782 3.71164158 78.05107313 6.68166296 75.5625 9.875 C75.12292969 10.44089844 74.68335938 11.00679687 74.23046875 11.58984375 C72.8246936 13.39670164 71.41335833 15.19906891 70 17 C69.54351074 17.58168945 69.08702148 18.16337891 68.61669922 18.76269531 C66.79001885 21.0885078 64.96220571 23.41341774 63.13183594 25.73632812 C58.36981006 31.78474588 53.68027762 37.88822748 49 44 C52.10517203 49.67261914 55.63626174 54.91518718 59.375 60.1875 C59.97916748 61.04593506 60.58333496 61.90437012 61.20581055 62.78881836 C63.79940485 66.47353634 66.40053747 70.1528921 69.00341797 73.83105469 C70.94264052 76.57286163 72.87763025 79.31762045 74.8125 82.0625 C75.41690918 82.91287842 76.02131836 83.76325684 76.64404297 84.6394043 C77.2010791 85.43000244 77.75811523 86.22060059 78.33203125 87.03515625 C78.82421143 87.7300415 79.3163916 88.42492676 79.82348633 89.14086914 C81 91 81 91 82 94 C79.30695906 94.24537268 76.63640028 94.42186252 73.9375 94.5625 C73.18533203 94.63791016 72.43316406 94.71332031 71.65820312 94.79101562 C68.09853425 94.92970402 65.89311516 94.79341748 63.16723633 92.37182617 C61.28927518 89.99582148 59.64159684 87.54505658 58 85 C56.65527696 83.07477082 55.30750699 81.151667 53.95703125 79.23046875 C51.86415908 76.18719106 49.77918007 73.13867385 47.69726562 70.08789062 C47.01986328 69.10369141 46.34246094 68.11949219 45.64453125 67.10546875 C45.03971924 66.22012451 44.43490723 65.33478027 43.81176758 64.42260742 C42.03835331 62.05128418 40.14567349 60.03512357 38 58 C37.33355469 58.84820313 36.66710937 59.69640625 35.98046875 60.5703125 C35.32050903 61.41021729 35.32050903 61.41021729 34.6472168 62.26708984 C33.66288987 63.51992943 32.6786802 64.77286116 31.69458008 66.02587891 C29.14282946 69.27459235 26.58937242 72.52192578 24.03125 75.765625 C23.5578418 76.36729492 23.08443359 76.96896484 22.59667969 77.58886719 C21.66102078 78.77481324 20.72158875 79.95779266 19.77832031 81.13769531 C17.27997322 84.27996483 15.06685644 87.47759984 12.9375 90.875 C11.14858121 93.35521189 10.47104942 93.91305896 7.41796875 94.4765625 C4.88860976 94.49778789 2.50197869 94.35601278 0 94 C2.61508358 88.76983285 5.93085007 84.56053174 9.72314453 80.11938477 C14.13830731 74.91676885 18.25564999 69.5029432 22.35717773 64.05126953 C25.75453808 59.55502823 29.29296507 55.24533192 33 51 C31.48545385 46.45636154 28.92949552 42.95620385 26.0625 39.1875 C20.61758868 31.90052913 15.44845351 24.45290672 10.32861328 16.93554688 C9.00275344 15.00401126 7.65931261 13.08609302 6.30859375 11.171875 C5.88723145 10.57262207 5.46586914 9.97336914 5.03173828 9.35595703 C3.88468516 7.72748154 2.73349555 6.10192192 1.58203125 4.4765625 C0 2 0 2 0 0 Z " fill="#DD9002" transform="translate(946,979)"/>
<path d="M0 0 C20.46 0 40.92 0 62 0 C62 2.64 62 5.28 62 8 C46.16 8 30.32 8 14 8 C14 18.89 14 29.78 14 41 C26.87 41 39.74 41 53 41 C53 43.31 53 45.62 53 48 C40.13 48 27.26 48 14 48 C14 60.87 14 73.74 14 87 C17.59777344 86.98839844 21.19554687 86.97679687 24.90234375 86.96484375 C28.37068595 86.95705443 31.83902719 86.95097696 35.30737305 86.94506836 C37.72567172 86.94002651 40.14396733 86.93319322 42.56225586 86.92456055 C46.02979283 86.91248843 49.49728966 86.90677037 52.96484375 86.90234375 C54.05337143 86.89718246 55.14189911 86.89202118 56.26341248 86.88670349 C57.76485558 86.88659019 57.76485558 86.88659019 59.29663086 86.88647461 C60.62566689 86.88314369 60.62566689 86.88314369 61.98155212 86.87974548 C64 87 64 87 65 88 C65 89.98 65 91.96 65 94 C43.55 94 22.1 94 0 94 C0 62.98 0 31.96 0 0 Z " fill="#000000" transform="translate(1041,979)"/>
<path d="M0 0 C20.13 0 40.26 0 61 0 C61 2.64 61 5.28 61 8 C45.49 8 29.98 8 14 8 C14 18.89 14 29.78 14 41 C26.87 41 39.74 41 53 41 C53 43.31 53 45.62 53 48 C40.13 48 27.26 48 14 48 C14 60.87 14 73.74 14 87 C30.5 87 47 87 64 87 C64 89.31 64 91.62 64 94 C42.88 94 21.76 94 0 94 C0 62.98 0 31.96 0 0 Z " fill="#000000" transform="translate(782,979)"/>
</svg>
